<?xml version="1.0" standalone="no"?>
<!DOCTYPE svg PUBLIC "-//W3C//DTD SVG 20010904//EN"
 "http://www.w3.org/TR/2001/REC-SVG-20010904/DTD/svg10.dtd">
<svg version="1.0" xmlns="http://www.w3.org/2000/svg"
 width="928.000000pt" height="209.000000pt" viewBox="0 0 928.000000 209.000000"
 preserveAspectRatio="xMidYMid meet">

<g transform="translate(0.000000,209.000000) scale(0.100000,-0.100000)"
fill="#000000" stroke="none">
<path d="M650 1667 c-247 -195 -382 -433 -397 -697 -5 -104 17 -234 55 -320
l21 -45 0 40 c1 30 9 49 30 72 34 38 67 48 123 39 40 -7 40 -6 35 21 -9 45 12
111 45 138 40 34 89 41 142 21 51 -19 145 -95 145 -117 1 -8 -13 -34 -30 -58
l-32 -43 46 33 47 33 67 -13 c42 -8 77 -21 92 -34 l24 -22 -19 26 c-10 15 -35
36 -54 47 -19 11 -79 60 -133 108 -110 99 -107 89 -60 199 61 138 185 278 323
364 47 29 75 50 63 46 -13 -3 -23 -3 -23 2 0 4 -27 8 -60 7 -37 0 -60 4 -60
10 0 7 -3 6 -8 -1 -5 -8 -13 -9 -22 -3 -8 6 -11 10 -5 10 5 0 -1 7 -13 16 -12
8 -27 12 -32 9 -6 -3 -10 -1 -10 4 0 6 -5 11 -11 11 -5 0 -7 -6 -3 -12 6 -10
4 -10 -7 0 -7 6 -25 12 -40 12 -15 0 -31 5 -34 10 -4 6 -10 8 -15 5 -12 -8
-41 6 -34 16 3 5 -1 9 -10 9 -8 0 -21 3 -30 6 -9 3 -16 1 -16 -6 0 -6 5 -8 10
-5 6 3 10 1 10 -5 0 -7 -6 -10 -14 -7 -7 3 -19 0 -25 -6 -7 -7 -12 -7 -11 -2
5 22 0 36 -10 30 -6 -4 -8 -11 -4 -16 3 -5 2 -9 -3 -8 -18 3 -34 -2 -29 -9 2
-4 -5 -8 -18 -8 -14 0 -22 6 -22 17 0 10 3 16 7 13 4 -2 7 8 7 22 0 17 11 36
33 54 52 45 31 35 -31 -13z m108 -150 c13 -30 29 -47 48 -54 16 -6 38 -14 49
-18 18 -7 16 -9 -13 -18 -36 -11 -73 -54 -90 -102 l-10 -30 -16 37 c-18 42
-55 74 -96 83 -31 7 -41 25 -15 25 9 0 33 9 55 20 30 16 42 29 51 60 7 22 13
40 15 40 2 0 12 -19 22 -43z m382 -31 c0 -9 -30 -14 -35 -6 -4 6 3 10 14 10
12 0 21 -2 21 -4z m-546 -218 c6 -13 30 -32 53 -43 l41 -20 -38 -16 c-25 -11
-45 -29 -57 -53 l-19 -37 -17 36 c-10 21 -30 42 -52 52 -19 9 -35 20 -35 23 0
4 18 14 40 23 26 10 43 25 50 43 11 29 17 27 34 -8z"/>
<path d="M1192 1681 c2 -8 15 -21 29 -30 19 -11 21 -12 9 0 -8 8 -21 21 -29
29 -11 12 -12 12 -9 1z"/>
<path d="M1129 1653 c-13 -15 -12 -15 9 -4 23 12 28 21 13 21 -5 0 -15 -7 -22
-17z"/>
<path d="M1136 1595 c43 -40 56 -45 28 -12 -25 30 -46 47 -57 47 -5 0 8 -16
29 -35z"/>
<path d="M1213 1608 c-31 -40 -27 -50 5 -13 12 14 18 25 13 25 -5 0 -13 -6
-18 -12z"/>
<path d="M1590 1477 c-133 -40 -469 -152 -508 -168 -41 -18 -45 -22 -29 -31
10 -5 55 -16 100 -24 99 -17 143 -41 139 -75 -4 -38 -24 -52 -57 -39 -44 17
-40 5 9 -24 25 -14 67 -28 93 -31 47 -5 47 -5 13 6 -36 11 -63 29 -44 29 6 0
46 -9 88 -20 92 -23 181 -69 226 -115 l33 -35 49 46 c27 25 81 61 121 80 69
32 75 34 145 26 l74 -7 -22 -25 -21 -24 23 -9 c24 -9 71 -57 63 -65 -2 -2 -10
-2 -17 0 -7 3 -15 5 -18 5 -3 0 -25 13 -50 29 -36 23 -56 29 -100 28 -50 0
-69 -6 -164 -52 -5 -3 -6 0 -2 7 4 6 2 11 -4 11 -7 0 -10 -7 -6 -15 3 -8 -6
-27 -20 -42 -13 -14 -29 -46 -35 -70 -7 -25 -16 -40 -22 -36 -7 4 -8 0 -4 -11
4 -10 7 -33 7 -52 0 -19 5 -34 10 -34 6 0 10 26 10 58 1 95 39 157 125 200 83
42 157 37 217 -15 9 -8 22 -12 29 -7 8 5 10 3 5 -5 -5 -7 0 -21 9 -31 48 -53
58 -167 21 -246 -46 -99 -129 -140 -245 -121 -59 9 -61 11 -61 39 0 122 -157
149 -215 38 -8 -16 -15 -38 -15 -48 0 -20 -38 -32 -100 -32 -179 0 -285 232
-168 366 41 46 80 66 153 75 l60 8 -65 -3 c-44 -2 -82 -12 -117 -29 -51 -24
-69 -23 -38 3 12 10 12 15 -5 33 -11 11 -20 29 -20 39 0 11 -4 17 -8 14 -5 -3
-23 20 -41 50 -19 29 -37 54 -41 54 -4 0 -14 -16 -23 -35 -10 -19 -24 -50 -33
-69 -17 -36 -13 -68 14 -98 8 -10 20 -18 27 -18 28 0 33 -22 18 -83 -11 -44
-13 -93 -10 -168 l5 -106 -51 -45 c-29 -25 -65 -68 -81 -97 -24 -45 -55 -167
-56 -223 0 -25 22 -22 39 3 12 21 14 19 43 -37 30 -60 69 -108 101 -125 14 -8
19 -5 27 16 5 14 13 25 17 24 5 0 31 -27 58 -59 l50 -58 235 -1 235 0 55 27
c48 24 55 31 58 60 2 18 10 41 18 50 35 39 104 131 104 137 0 4 -21 -16 -47
-45 -49 -54 -134 -117 -193 -141 -52 -21 -160 -15 -215 11 -48 23 -122 100
-131 137 -11 40 -19 25 -16 -27 3 -32 0 -50 -7 -50 -6 0 -11 6 -11 14 0 7 -7
19 -15 26 -8 7 -12 17 -8 24 3 6 2 8 -2 3 -5 -4 -17 10 -26 30 -10 21 -18 32
-19 25 0 -7 16 -46 35 -86 32 -67 81 -125 141 -164 10 -7 5 -6 -12 2 -47 23
-102 85 -138 156 -39 77 -55 140 -65 251 -7 78 -6 80 14 73 11 -3 54 -8 95
-11 60 -4 86 -1 130 16 l54 21 43 -42 c38 -38 46 -41 70 -32 15 5 40 28 56 52
l28 42 24 -28 c21 -24 31 -27 102 -30 70 -3 82 -1 115 21 l37 26 6 -30 c15
-65 -21 -272 -59 -347 -31 -60 -99 -129 -151 -153 l-40 -19 106 0 106 0 58 55
c31 30 60 55 64 55 4 0 13 -11 19 -25 14 -31 18 -31 66 3 65 45 98 94 100 146
1 46 11 60 22 31 4 -8 12 -15 20 -15 35 0 1 149 -52 230 -24 35 -144 147 -144
134 0 -4 7 -16 17 -26 9 -10 13 -21 9 -25 -4 -4 -12 -1 -17 7 -8 11 -9 -9 -6
-65 4 -59 3 -70 -3 -40 -14 62 -11 145 5 199 21 70 19 123 -11 217 -28 88 -25
101 23 104 15 1 33 3 40 3 15 2 10 31 -6 42 -9 5 -10 13 -3 26 5 11 13 43 17
72 8 62 -2 66 -68 28 -23 -13 -57 -26 -75 -30 -28 -5 -38 -1 -67 29 -19 19
-35 39 -35 44 0 5 33 21 73 36 39 15 84 31 99 37 15 6 33 16 39 24 19 23 -66
56 -407 153 -78 23 -145 41 -150 40 -5 -1 -25 -6 -44 -12z m594 -360 c-57 -65
-60 -66 -18 -5 21 31 42 54 47 51 4 -2 -9 -23 -29 -46z m-64 -12 c0 -8 -9 -15
-19 -15 -11 0 -23 -4 -26 -10 -3 -5 -11 -10 -17 -10 -23 0 26 41 60 49 1 1 2
-6 2 -14z m-1005 -65 c3 -5 1 -10 -4 -10 -6 0 -11 5 -11 10 0 6 2 10 4 10 3 0
8 -4 11 -10z m599 -361 c43 -34 31 -124 -24 -174 -20 -18 -21 -18 -38 -1 -16
16 -16 17 1 10 11 -4 25 0 37 11 26 23 25 39 0 32 -11 -3 -27 1 -34 9 -8 8
-28 14 -45 14 -28 0 -31 3 -31 31 0 38 48 89 83 89 13 0 36 -9 51 -21z m-429
-139 c3 -5 1 -10 -4 -10 -6 0 -11 5 -11 10 0 6 2 10 4 10 3 0 8 -4 11 -10z
m902 -42 c-3 -7 -5 -2 -5 12 0 14 2 19 5 13 2 -7 2 -19 0 -25z m-10 -110 c-3
-8 -6 -5 -6 6 -1 11 2 17 5 13 3 -3 4 -12 1 -19z m10 -40 c-3 -8 -6 -5 -6 6
-1 11 2 17 5 13 3 -3 4 -12 1 -19z m10 -40 c-3 -8 -6 -5 -6 6 -1 11 2 17 5 13
3 -3 4 -12 1 -19z m0 -85 c-3 -10 -5 -4 -5 12 0 17 2 24 5 18 2 -7 2 -21 0
-30z m-1000 -85 c-3 -8 -6 -5 -6 6 -1 11 2 17 5 13 3 -3 4 -12 1 -19z"/>
<path d="M167 1109 c-85 -230 -97 -425 -37 -618 51 -161 164 -322 300 -425 83
-63 90 -66 177 -66 73 0 80 2 110 30 20 19 47 32 75 37 31 5 37 8 23 12 -33
10 -146 71 -210 114 -212 142 -349 334 -411 577 -25 100 -26 290 -1 374 29 93
14 74 -26 -35z"/>
<path d="M4873 1020 c0 -25 2 -35 4 -22 2 12 2 32 0 45 -2 12 -4 2 -4 -23z"/>
<path d="M1525 991 c46 -21 74 -49 104 -106 13 -25 19 -30 15 -15 -12 46 -45
90 -88 115 -24 14 -49 25 -57 25 -8 0 4 -9 26 -19z"/>
<path d="M5041 964 c0 -11 3 -14 6 -6 3 7 2 16 -1 19 -3 4 -6 -2 -5 -13z"/>
<path d="M4494 946 c-3 -7 -4 -33 -1 -57 l4 -44 1 52 c1 30 7 53 15 56 9 4 9
6 -1 6 -7 1 -15 -5 -18 -13z"/>
<path d="M1394 921 c-39 -17 -74 -70 -74 -112 0 -102 97 -162 180 -112 97 57
60 214 -52 228 -18 3 -42 1 -54 -4z m76 -51 c24 -24 25 -43 4 -64 -18 -19 -28
-20 -55 -6 -25 14 -26 65 -1 79 24 15 29 14 52 -9z"/>
<path d="M1834 920 c-84 -34 -85 -180 -2 -226 13 -8 40 -13 62 -14 30 0 45 7
72 34 30 30 34 40 34 88 0 32 -6 62 -16 76 -31 44 -98 63 -150 42z m86 -50
c25 -25 25 -32 2 -60 -23 -28 -59 -20 -72 16 -15 38 -2 56 43 63 4 0 16 -8 27
-19z"/>
<path d="M5042 900 c0 -19 2 -27 5 -17 2 9 2 25 0 35 -3 9 -5 1 -5 -18z"/>
<path d="M4864 785 c0 -49 1 -71 3 -48 2 23 2 64 0 90 -2 26 -3 8 -3 -42z"/>
<path d="M4458 773 c7 -3 16 -2 19 1 4 3 -2 6 -13 5 -11 0 -14 -3 -6 -6z"/>
<path d="M4708 773 c17 -2 47 -2 65 0 17 2 3 4 -33 4 -36 0 -50 -2 -32 -4z"/>
<path d="M3999 746 c-42 -29 -82 -85 -105 -146 -25 -68 -31 -246 -10 -306 42
-123 107 -167 245 -168 72 0 95 4 141 26 30 14 66 34 79 45 l24 20 -18 50 -18
51 -51 -24 c-35 -16 -69 -24 -109 -24 -54 0 -62 3 -93 34 -23 23 -34 43 -34
63 l0 29 89 10 c101 12 192 51 225 96 22 31 34 126 18 154 -7 13 -9 6 -5 -28
8 -66 -3 -101 -27 -95 -16 4 -18 2 -10 -13 7 -13 4 -22 -13 -36 l-22 -19 20
24 c20 23 20 23 0 20 -14 -3 -19 1 -17 12 1 9 -11 20 -33 29 -19 8 -35 19 -35
24 -1 13 -29 -34 -30 -48 0 -6 6 -2 13 9 11 14 16 15 22 5 5 -8 4 -11 -2 -7
-6 4 -14 -1 -17 -10 -5 -11 -10 -13 -17 -6 -7 7 -25 6 -56 -3 -26 -8 -60 -14
-76 -14 -29 0 -29 1 -23 43 10 62 38 110 77 129 23 12 28 18 15 18 -27 0 -84
-65 -92 -105 -7 -41 -19 -51 -39 -35 -8 7 -15 9 -15 4 0 -4 -5 -3 -12 4 -8 8
-17 8 -31 1 -14 -8 -18 -8 -13 0 9 14 0 14 -25 0 -11 -5 -17 -14 -14 -20 4 -5
1 -9 -5 -9 -15 0 -5 52 21 105 24 50 58 89 101 115 18 11 28 20 23 20 -6 0
-26 -11 -46 -24z"/>
<path d="M5089 733 c-13 -16 -12 -17 4 -4 16 13 21 21 13 21 -2 0 -10 -8 -17
-17z"/>
<path d="M5529 713 l-24 -28 28 24 c15 14 27 26 27 28 0 8 -8 1 -31 -24z"/>
<path d="M3591 710 c-1 -15 23 -146 35 -195 l6 -25 -96 0 c-80 0 -96 3 -96 16
0 9 -5 12 -12 8 -6 -4 -8 -3 -5 3 4 6 0 16 -8 23 -8 7 -15 19 -15 26 0 16 -26
19 -35 4 -9 -15 -27 -12 -20 3 4 6 -1 3 -9 -7 -16 -20 -16 -20 -16 0 0 16 -2
17 -10 4 -14 -22 -12 3 4 41 18 46 30 85 22 78 -3 -3 -46 -115 -95 -250 -49
-134 -94 -256 -100 -271 l-11 -28 108 0 108 0 23 88 c13 49 26 95 31 102 5 9
41 13 126 14 l117 1 20 -102 19 -103 94 0 c93 0 94 0 89 22 -3 13 -26 120 -50
238 -24 118 -42 190 -40 160 2 -30 2 -47 -1 -37 -3 9 -10 17 -15 17 -6 0 -7 5
-4 10 3 6 1 10 -5 10 -6 0 -8 5 -4 13 5 8 2 8 -9 -2 -14 -11 -17 -11 -17 0 0
9 -14 15 -40 16 -37 1 -40 -1 -40 -25 0 -43 -9 -20 -29 74 -10 49 -19 82 -20
74z m-300 -187 c-12 -20 -14 -14 -5 12 4 9 9 14 11 11 3 -2 0 -13 -6 -23z"/>
<path d="M3752 695 c0 -16 2 -22 5 -12 2 9 2 23 0 30 -3 6 -5 -1 -5 -18z"/>
<path d="M4411 704 c0 -11 3 -14 6 -6 3 7 2 16 -1 19 -3 4 -6 -2 -5 -13z"/>
<path d="M4356 697 c3 -10 9 -15 12 -12 3 3 0 11 -7 18 -10 9 -11 8 -5 -6z"/>
<path d="M4170 686 c0 -2 9 -6 20 -9 11 -3 18 -1 14 4 -5 9 -34 13 -34 5z"/>
<path d="M5479 639 c-11 -23 -27 -77 -36 -122 -20 -108 -11 -190 31 -270 27
-53 39 -65 88 -90 47 -25 68 -29 131 -29 88 0 159 21 207 61 34 28 34 28 21
68 -21 64 -22 65 -76 38 -58 -30 -142 -34 -180 -9 -21 14 -64 100 -54 107 2 2
46 8 98 15 112 13 193 48 222 96 10 17 19 36 19 41 0 6 -6 1 -12 -10 -14 -27
-60 -75 -70 -75 -4 0 -8 7 -8 15 0 8 -5 15 -11 15 -5 0 -7 -6 -3 -12 5 -8 1
-8 -10 1 -15 13 -19 13 -27 0 -7 -11 -9 -8 -9 10 0 20 -2 22 -16 10 -23 -19
-64 -23 -64 -6 0 11 -12 13 -52 9 -29 -2 -60 -8 -68 -12 -20 -10 -40 -2 -40
15 0 19 -17 27 -40 20 -12 -4 -17 -11 -13 -18 3 -7 -3 -4 -14 6 -11 9 -23 14
-26 10 -17 -16 -4 57 18 105 29 62 25 70 -6 11z m61 -129 c0 -5 -2 -10 -4 -10
-3 0 -8 5 -11 10 -3 6 -1 10 4 10 6 0 11 -4 11 -10z m170 -20 c0 -5 -5 -10
-11 -10 -5 0 -7 5 -4 10 3 6 8 10 11 10 2 0 4 -4 4 -10z m123 -47 c-7 -2 -19
-2 -25 0 -7 3 -2 5 12 5 14 0 19 -2 13 -5z"/>
<path d="M4221 665 c0 -5 6 -21 14 -35 8 -14 14 -20 14 -15 0 6 -6 21 -14 35
-8 14 -14 21 -14 15z"/>
<path d="M3761 644 c0 -11 3 -14 6 -6 3 7 2 16 -1 19 -3 4 -6 -2 -5 -13z"/>
<path d="M4448 653 c7 -3 16 -2 19 1 4 3 -2 6 -13 5 -11 0 -14 -3 -6 -6z"/>
<path d="M4698 653 c17 -2 47 -2 65 0 17 2 3 4 -33 4 -36 0 -50 -2 -32 -4z"/>
<path d="M5369 598 c-1 -72 -16 -174 -18 -123 -1 23 -8 33 -28 42 -57 23 -82
24 -101 5 -18 -18 -19 -18 -20 22 -1 22 -5 43 -10 47 -11 12 -14 -348 -2 -392
13 -49 49 -69 122 -69 71 0 118 28 118 70 0 25 -4 30 -25 30 -36 0 -39 25 -31
242 3 103 4 188 1 188 -3 0 -5 -28 -6 -62z"/>
<path d="M4649 578 c0 -40 -3 -67 -6 -60 -2 6 -9 10 -13 7 -5 -3 -12 0 -16 6
-4 8 -3 9 4 5 14 -9 15 4 2 24 -5 8 -10 10 -10 5 0 -6 -9 -11 -20 -11 -11 0
-20 3 -20 6 0 3 -11 7 -26 8 -17 1 -23 -2 -18 -10 5 -8 2 -9 -10 -5 -9 4 -14
3 -11 -2 3 -5 1 -12 -5 -16 -6 -4 -10 15 -11 52 -2 114 -16 10 -24 -168 -8
-200 1 -240 58 -274 52 -31 200 -21 249 17 15 11 15 20 6 59 l-11 46 -47 -5
c-71 -7 -74 3 -65 215 4 95 4 173 1 173 -3 0 -6 -33 -7 -72z"/>
<path d="M4847 495 c-4 -88 -10 -204 -14 -257 l-6 -98 95 0 95 0 1 102 c4 235
18 307 69 354 14 13 21 24 15 24 -13 0 -62 -62 -62 -79 0 -7 -5 -9 -12 -5 -7
5 -8 3 -3 -6 9 -15 -7 -6 -37 19 -19 16 -56 22 -64 10 -2 -5 -16 -4 -29 1 -22
8 -25 7 -27 -13 -1 -12 -4 7 -7 43 -5 54 -7 37 -14 -95z"/>
<path d="M5953 600 c0 -25 2 -35 4 -22 2 12 2 32 0 45 -2 12 -4 2 -4 -23z"/>
<path d="M3461 604 c0 -11 3 -14 6 -6 3 7 2 16 -1 19 -3 4 -6 -2 -5 -13z"/>
<path d="M6017 410 c-4 -102 -10 -204 -13 -228 l-6 -42 99 0 100 0 7 133 c4
72 9 150 12 172 l5 40 -15 -31 c-7 -18 -20 -35 -27 -39 -7 -5 -10 -4 -6 2 7
11 -34 33 -62 33 -10 0 -21 3 -25 7 -15 15 -46 13 -48 -5 -1 -9 -4 19 -7 63
-5 69 -7 54 -14 -105z"/>
<path d="M6266 573 c-6 -14 -5 -15 5 -6 7 7 10 15 7 18 -3 3 -9 -2 -12 -12z"/>
<path d="M3451 573 c-1 -6 -4 -20 -7 -30 -5 -17 -5 -17 6 0 6 10 9 23 6 30 -3
9 -5 9 -5 0z"/>
<path d="M5608 547 c-3 -19 -2 -25 4 -19 6 6 8 18 6 28 -3 14 -5 12 -10 -9z"/>
<path d="M5775 540 c-15 -17 -16 -20 -3 -20 9 0 18 9 21 20 3 11 4 20 3 20 -2
0 -11 -9 -21 -20z"/>
<path d="M645 509 c-110 -22 -157 -23 -214 -3 -24 8 -45 13 -48 11 -14 -14
163 -210 262 -289 46 -37 151 -98 168 -98 9 0 42 -7 74 -15 86 -22 104 -19 47
10 -100 50 -197 143 -269 258 -19 32 -19 32 0 17 11 -8 64 -54 118 -103 64
-56 107 -87 122 -87 23 0 23 0 9 47 -28 91 -14 172 38 230 l20 21 -89 6 c-48
4 -101 8 -118 10 -16 2 -70 -5 -120 -15z"/>
<path d="M8181 358 c0 -38 2 -68 7 -68 4 0 6 21 4 48 -5 82 -9 89 -11 20z"/>
<path d="M8983 355 c0 -38 2 -53 4 -32 2 20 2 52 0 70 -2 17 -4 1 -4 -38z"/>
<path d="M8633 370 c0 -25 2 -35 4 -22 2 12 2 32 0 45 -2 12 -4 2 -4 -23z"/>
<path d="M1480 351 c0 -18 39 -32 72 -27 30 5 74 36 51 36 -7 0 -15 -4 -18
-10 -8 -13 -61 -13 -86 0 -12 7 -19 7 -19 1z"/>
<path d="M1853 344 c21 -25 97 -29 105 -6 3 11 0 12 -17 2 -17 -9 -26 -9 -36
0 -8 7 -19 9 -25 5 -6 -4 -19 -1 -28 6 -15 12 -15 11 1 -7z"/>
<path d="M6532 314 c-1 -28 -5 -79 -8 -113 l-7 -61 234 2 234 3 3 65 c3 62 2
66 -20 67 -20 2 -21 1 -5 -8 18 -11 24 -49 7 -49 -5 0 -10 4 -10 9 0 4 -27 8
-59 9 -33 0 -73 3 -90 7 -20 4 -31 3 -31 -4 0 -6 -7 -11 -16 -11 -9 0 -12 5
-8 12 5 7 2 9 -9 5 -9 -3 -18 1 -22 11 -5 14 -7 14 -15 2 -8 -12 -10 -12 -10
-1 0 9 -6 11 -17 6 -10 -4 -30 -9 -45 -10 -14 -2 -31 -6 -37 -10 -6 -3 -11 -2
-11 4 0 6 -6 8 -12 6 -24 -9 -37 10 -41 60 l-3 50 -2 -51z m351 -161 c-7 -2
-21 -2 -30 0 -10 3 -4 5 12 5 17 0 24 -2 18 -5z m70 0 c-7 -2 -19 -2 -25 0 -7
3 -2 5 12 5 14 0 19 -2 13 -5z"/>
<path d="M6721 353 c0 -6 -4 -20 -7 -30 -5 -14 -4 -15 5 -7 7 7 11 20 8 30 -3
11 -5 14 -6 7z"/>
<path d="M7011 334 c0 -11 3 -14 6 -6 3 7 2 16 -1 19 -3 4 -6 -2 -5 -13z"/>
<path d="M7190 323 c0 -5 12 -20 28 -34 l27 -24 -25 30 c-14 17 -26 32 -27 34
-2 2 -3 0 -3 -6z"/>
<path d="M7554 277 c4 -96 61 -147 164 -147 66 0 115 20 157 65 l33 34 6 -34
c9 -46 52 -69 113 -62 61 7 93 30 93 68 0 17 -4 28 -9 24 -5 -3 -17 5 -27 17
-11 15 -14 17 -11 6 5 -14 1 -18 -16 -18 -17 0 -19 2 -8 9 19 12 -34 19 -72 9
-15 -4 -25 -3 -22 2 3 4 -11 10 -29 12 -19 2 -32 0 -30 -4 3 -4 0 -8 -6 -8 -6
0 -8 -4 -5 -10 3 -5 3 -10 -2 -11 -43 -4 -54 -7 -59 -12 -4 -3 -22 0 -41 8
-18 8 -31 10 -28 5 3 -5 1 -11 -5 -15 -5 -3 -10 -1 -10 6 0 7 -10 9 -25 7 -22
-5 -24 -3 -13 11 7 9 9 13 4 9 -5 -4 -18 -3 -29 3 -14 8 -18 8 -13 0 4 -6 0
-11 -8 -11 -9 0 -16 -4 -16 -10 0 -5 -9 -1 -20 10 -22 22 -40 19 -40 -7 0 -34
-15 1 -22 50 l-7 52 3 -58z"/>
<path d="M7020 302 c-1 -50 85 -144 150 -162 56 -16 180 -11 225 8 65 27 105
55 104 72 -1 29 -35 94 -43 82 -4 -7 -2 -12 3 -12 19 0 12 -39 -8 -50 -26 -13
-34 -13 -25 2 4 7 3 8 -5 4 -8 -6 -9 -12 -2 -20 6 -7 8 -16 4 -19 -3 -4 -12 1
-19 11 -10 12 -13 13 -14 3 0 -11 -3 -11 -15 -1 -8 7 -22 10 -30 6 -11 -4 -14
-2 -9 6 5 8 2 9 -9 5 -10 -3 -17 -2 -17 2 0 5 6 12 13 14 7 3 5 6 -5 6 -10 1
-18 -3 -18 -8 0 -4 -11 -7 -25 -6 -14 2 -25 0 -25 -4 0 -4 -7 -8 -15 -8 -8 0
-11 5 -8 10 4 6 -4 7 -21 3 -16 -4 -25 -3 -22 2 3 6 -7 9 -22 9 -85 -1 -117 7
-129 32 -7 14 -12 20 -13 13z m57 -67 c0 -8 -4 -12 -9 -9 -5 3 -6 10 -3 15 9
13 12 11 12 -6z m253 -29 c0 -2 -7 -7 -16 -10 -8 -3 -12 -2 -9 4 6 10 25 14
25 6z"/>
<path d="M7716 301 c-3 -5 1 -14 8 -20 12 -10 13 -8 9 8 -6 23 -9 25 -17 12z"/>
<path d="M8360 285 c-4 -26 -11 -31 -49 -39 -33 -7 -46 -6 -49 2 -2 7 -14 12
-26 12 -12 0 -28 6 -35 13 -7 6 -12 8 -11 2 2 -5 2 -19 1 -30 -1 -16 -3 -17
-10 -6 -6 9 -9 -6 -10 -43 l0 -56 95 0 c70 0 96 3 100 13 3 8 4 47 2 88 -2 42
-5 61 -8 44z"/>
<path d="M8799 258 c-1 -24 -3 -35 -6 -26 -4 15 -13 17 -61 12 -31 -3 -65 -6
-74 -6 -10 1 -19 -7 -20 -16 0 -9 -4 3 -8 28 -6 40 -7 36 -8 -32 l-2 -78 95 0
95 0 0 80 c0 83 -9 113 -11 38z m1 -68 c0 -11 -2 -20 -4 -20 -2 0 -6 9 -9 20
-3 11 -1 20 4 20 5 0 9 -9 9 -20z"/>
<path d="M6738 273 c7 -3 16 -2 19 1 4 3 -2 6 -13 5 -11 0 -14 -3 -6 -6z"/>
<path d="M8981 237 c-1 -41 3 -53 28 -78 18 -17 41 -29 58 -30 62 -2 106 3
139 17 26 11 33 19 30 37 -2 16 -11 23 -37 27 -29 5 -34 9 -31 30 3 24 2 24
-13 5 -8 -11 -15 -15 -14 -10 3 23 -2 26 -17 11 -8 -9 -21 -13 -27 -9 -7 4
-20 6 -31 4 -12 -2 -16 1 -10 10 5 9 2 10 -10 6 -10 -4 -24 -7 -32 -7 -8 0
-15 -8 -15 -17 -1 -10 -5 -2 -9 17 -7 34 -7 34 -9 -13z m176 -33 c-3 -3 -12
-4 -19 -1 -8 3 -5 6 6 6 11 1 17 -2 13 -5z"/>
<path d="M1533 246 c6 -19 80 -49 133 -54 52 -4 97 11 123 41 8 10 -1 9 -28
-5 -56 -28 -115 -26 -179 4 -29 14 -51 20 -49 14z"/>
<path d="M7370 251 c-20 -6 -22 -8 -8 -13 9 -4 22 -1 28 8 7 8 11 14 9 13 -2
-1 -15 -4 -29 -8z"/>
<path d="M7768 253 c6 -2 18 -2 25 0 6 3 1 5 -13 5 -14 0 -19 -2 -12 -5z"/>
<path d="M7837 246 c-4 -10 -1 -13 8 -9 8 3 12 9 9 14 -7 12 -11 11 -17 -5z"/>
<path d="M1936 145 c-11 -8 -15 -15 -9 -15 6 0 16 7 23 15 16 19 11 19 -14 0z"/>
</g>
</svg>
