<?xml version="1.0" standalone="no"?>
<!DOCTYPE svg PUBLIC "-//W3C//DTD SVG 20010904//EN"
 "http://www.w3.org/TR/2001/REC-SVG-20010904/DTD/svg10.dtd">
<svg version="1.0" xmlns="http://www.w3.org/2000/svg"
 width="715.000000pt" height="135.000000pt" viewBox="0 0 715.000000 135.000000"
 preserveAspectRatio="xMidYMid meet">

<g transform="translate(0.000000,135.000000) scale(0.100000,-0.100000)"
fill="#000000" stroke="none">
<path d="M0 675 l0 -675 3575 0 3575 0 0 675 0 675 -3575 0 -3575 0 0 -675z
m1340 477 c0 -4 -37 -52 -83 -107 -95 -115 -130 -165 -177 -253 -42 -80 -51
-74 -11 7 37 73 24 80 -33 19 l-39 -43 37 53 c20 28 36 55 36 59 0 13 -44 -34
-87 -94 -48 -68 -68 -84 -33 -28 12 19 19 39 15 45 -4 6 -1 9 6 8 6 -2 13 9
16 25 2 15 -1 27 -7 27 -6 0 -9 -4 -6 -8 2 -4 0 -14 -5 -22 -9 -13 -10 -13 -6
0 8 27 -12 52 -36 45 -21 -6 -22 -6 -3 9 18 15 15 21 -7 17 -5 -1 -6 3 -3 8 4
5 2 12 -3 16 -11 6 20 74 48 109 13 16 9 15 -19 -4 -57 -39 -145 -133 -185
-199 -21 -34 -40 -61 -42 -61 -10 0 43 85 91 146 95 119 203 189 337 218 70
15 199 21 199 8z m75 -132 c64 -145 116 -272 140 -342 l23 -66 -26 -10 c-77
-29 -76 -29 -118 63 -22 47 -41 85 -44 85 -3 0 -49 -67 -104 -149 -91 -138
-101 -150 -137 -159 -38 -10 -39 -9 -39 17 0 41 35 169 76 277 51 136 173 389
183 378 5 -5 26 -47 46 -94z m1828 -177 c-2 -60 -5 -118 -7 -130 -2 -13 -2
-23 -1 -23 2 0 19 16 38 35 49 49 125 53 165 9 20 -23 22 -34 22 -157 0 -120
2 -134 20 -150 42 -35 14 -67 -60 -67 -31 0 -47 6 -67 26 -25 25 -26 27 -19
137 3 62 2 118 -2 125 -14 21 -53 10 -75 -20 -23 -31 -35 -99 -36 -200 l-1
-68 -62 0 -61 0 7 123 c3 67 9 194 12 282 3 88 7 166 10 173 2 8 24 12 63 12
l59 0 -5 -107z m1113 -134 c-9 -122 -16 -229 -16 -236 0 -10 22 -13 85 -13
l85 0 0 -45 0 -45 -146 0 -147 0 7 88 c3 48 8 146 11 217 3 72 8 158 11 192
l5 62 57 3 c31 2 58 2 60 2 2 -1 -4 -102 -12 -225z m-1994 71 c36 -180 78
-381 84 -402 5 -16 -2 -18 -60 -18 l-65 0 -7 38 c-17 103 -11 97 -97 100 l-76
3 -22 -71 -21 -70 -65 0 c-58 0 -65 2 -60 18 3 9 33 91 67 182 34 91 75 203
92 250 17 47 35 90 39 96 5 6 42 10 86 10 l78 -1 27 -135z m626 30 l-5 -50 43
0 44 0 0 -40 0 -40 -44 0 -44 0 -7 -94 c-9 -120 -4 -136 40 -136 29 0 34 -4
40 -32 9 -38 -7 -52 -66 -62 -30 -5 -51 -2 -78 11 -56 28 -63 50 -55 191 6
119 6 122 -15 122 -18 0 -21 6 -21 40 0 36 3 40 25 40 22 0 25 4 25 39 0 39 1
40 43 49 80 18 80 18 75 -38z m1160 -49 c9 -5 12 -25 10 -62 -3 -51 -4 -54
-28 -51 -37 4 -76 -16 -90 -46 -7 -15 -16 -74 -19 -132 l-6 -105 -63 -3 -63
-3 6 188 c4 103 8 194 11 201 2 8 23 12 59 12 l55 0 0 -41 0 -42 23 34 c32 48
76 69 105 50z m-1403 -23 c40 -31 56 -77 44 -121 -16 -58 -75 -92 -171 -99
-29 -1 -38 -6 -38 -19 0 -43 79 -62 145 -35 33 14 34 14 44 -16 6 -17 11 -35
11 -40 0 -20 -86 -48 -150 -48 -115 0 -170 59 -170 183 0 102 34 177 94 203
17 7 61 13 97 14 53 0 72 -4 94 -22z m1045 7 c61 -31 75 -111 30 -168 -23 -29
-97 -57 -152 -57 -44 0 -46 -7 -17 -44 24 -30 77 -35 134 -12 33 14 34 14 44
-16 6 -17 11 -35 11 -40 0 -19 -86 -48 -145 -48 -72 0 -121 22 -151 68 -62 92
-24 270 67 315 43 21 140 22 179 2z m1041 -23 c32 -35 38 -81 17 -127 -14 -31
-94 -71 -160 -80 -39 -5 -46 -9 -41 -23 17 -49 65 -61 137 -37 26 9 50 15 52
13 2 -2 5 -19 6 -38 3 -32 0 -35 -42 -51 -57 -23 -142 -24 -186 -3 -54 26 -84
86 -84 168 0 72 17 126 53 165 36 39 75 52 151 48 63 -3 71 -5 97 -35z m371 0
l33 -33 -3 -111 c-2 -127 2 -148 29 -148 30 0 25 -44 -6 -58 -53 -24 -125 -3
-125 35 0 14 -4 13 -22 -4 -36 -32 -63 -43 -108 -43 -33 0 -48 6 -71 29 -16
16 -29 38 -30 48 -6 100 36 143 159 163 31 6 58 10 60 10 1 0 2 10 2 23 0 50
-38 59 -120 28 l-50 -19 -15 35 c-9 20 -14 37 -12 39 1 2 23 12 47 23 35 16
62 20 122 18 73 -2 80 -4 110 -35z m228 -11 l0 -46 26 42 c25 43 52 57 95 51
28 -4 37 -46 19 -92 -9 -24 -14 -27 -39 -21 -22 5 -35 0 -55 -17 -33 -28 -45
-78 -46 -180 l0 -78 -60 0 -60 0 6 183 c3 100 7 187 9 192 1 6 26 10 54 11
l51 1 0 -46z m310 14 c0 -19 2 -35 4 -35 2 0 20 16 39 35 31 31 41 35 84 35
40 0 54 -5 74 -26 23 -25 24 -30 21 -161 -3 -128 -2 -135 18 -140 25 -7 28
-58 4 -67 -33 -12 -92 -6 -115 13 -23 18 -24 25 -24 148 l0 128 -29 0 c-56 0
-84 -71 -85 -225 l-1 -65 -57 2 c-49 1 -58 4 -58 20 0 60 18 359 22 366 2 4
26 7 54 7 l49 0 0 -35z m-4839 -68 c-10 -9 -11 -8 -5 6 3 10 9 15 12 12 3 -3
0 -11 -7 -18z m-134 -83 c-3 -3 -12 -4 -19 -1 -8 3 -5 6 6 6 11 1 17 -2 13 -5z
m927 -20 c9 -3 16 -17 16 -30 0 -15 9 -27 28 -36 20 -10 29 -23 34 -53 3 -22
9 -51 14 -64 4 -14 3 -22 -2 -19 -5 4 -59 11 -121 17 -174 18 -308 -11 -441
-96 l-53 -34 -37 29 c-95 75 -201 104 -377 104 -70 0 -144 -6 -177 -15 -56
-14 -58 -14 -58 5 0 11 9 31 20 46 16 20 18 27 8 34 -10 6 -5 16 20 37 17 15
32 33 32 39 0 20 45 24 139 13 146 -18 275 -74 371 -162 l42 -38 40 37 c63 58
156 120 217 143 104 39 241 60 285 43z m-1139 -287 c6 1 48 9 95 19 164 33
384 -2 492 -78 13 -10 24 -10 45 -1 16 6 61 25 102 42 40 17 98 34 129 38 31
3 49 9 39 12 -24 9 -7 26 31 29 22 1 32 -2 32 -12 0 -16 50 -28 51 -12 0 7 3
6 6 -1 2 -7 19 -13 36 -13 18 0 59 -7 92 -14 33 -8 62 -13 64 -11 2 2 7 19 11
37 7 31 8 30 9 -16 1 -46 0 -48 -21 -42 -137 39 -293 47 -393 20 -33 -8 -93
-31 -133 -50 l-74 -36 -71 36 c-40 19 -100 42 -133 50 -81 21 -279 21 -354 1
-79 -21 -80 -21 -79 28 l2 42 6 -35 c4 -19 11 -34 16 -33z m1130 31 c7 -7 1
-7 -15 -2 -14 4 -38 8 -55 7 -25 -1 -26 0 -10 7 22 9 65 3 80 -12z m-630 -9
c-4 -5 -1 -9 5 -9 6 0 8 -5 5 -10 -9 -15 -24 -2 -22 20 1 10 5 16 9 14 5 -3 6
-10 3 -15z m59 -24 c11 -8 16 -15 10 -15 -5 0 -18 7 -28 15 -11 8 -16 15 -10
15 5 0 18 -7 28 -15z"/>
<path d="M2206 702 c-16 -53 -32 -103 -34 -109 -3 -10 12 -13 53 -13 54 0 57
1 52 23 -3 12 -11 58 -18 102 -7 44 -15 83 -18 87 -3 4 -19 -37 -35 -90z"/>
<path d="M2596 658 c-8 -13 -18 -35 -21 -50 -6 -23 -4 -28 12 -28 63 0 112 44
91 83 -13 25 -64 22 -82 -5z"/>
<path d="M3673 678 c-21 -10 -43 -54 -43 -84 0 -21 54 -17 84 7 31 24 34 64 7
79 -23 12 -20 12 -48 -2z"/>
<path d="M4667 662 c-9 -10 -20 -33 -23 -50 -6 -31 -5 -32 28 -32 62 0 109 55
76 88 -18 18 -63 14 -81 -6z"/>
<path d="M5036 529 c-30 -23 -36 -73 -10 -83 46 -18 94 20 94 75 0 25 -4 29
-29 29 -15 0 -40 -9 -55 -21z"/>
</g>
</svg>
