<?xml version="1.0" standalone="no"?>
<!DOCTYPE svg PUBLIC "-//W3C//DTD SVG 20010904//EN"
 "http://www.w3.org/TR/2001/REC-SVG-20010904/DTD/svg10.dtd">
<svg version="1.0" xmlns="http://www.w3.org/2000/svg"
 width="1536.000000pt" height="1024.000000pt" viewBox="0 0 1536.000000 1024.000000"
 preserveAspectRatio="xMidYMid meet">

<g transform="translate(0.000000,1024.000000) scale(0.100000,-0.100000)"
fill="#000000" stroke="none">
<path d="M3170 8497 c-247 -195 -382 -433 -397 -697 -5 -104 17 -234 55 -320
l21 -45 0 40 c1 30 9 49 30 72 34 38 67 48 123 39 40 -7 40 -6 35 21 -9 45 12
111 45 138 40 34 89 41 142 21 51 -19 145 -95 145 -117 1 -8 -13 -34 -30 -58
l-32 -43 46 33 47 33 67 -13 c42 -8 78 -21 93 -34 16 -14 20 -16 10 -4 -7 10
-41 39 -74 64 -34 26 -96 78 -139 117 -88 79 -86 73 -40 181 61 138 185 278
323 364 47 29 75 50 63 46 -13 -3 -23 -3 -23 2 0 10 -71 10 -87 0 -6 -4 -22
-3 -36 2 -14 5 -28 7 -33 3 -4 -4 -5 0 -2 9 7 17 -27 43 -42 34 -6 -4 -10 -1
-10 4 0 6 -5 11 -11 11 -5 0 -7 -6 -3 -12 6 -10 4 -10 -7 0 -7 6 -25 12 -40
12 -15 0 -30 4 -33 9 -3 5 -16 7 -27 4 -14 -4 -25 0 -31 11 -5 9 -14 16 -19
16 -6 0 -7 -4 -4 -10 3 -6 -4 -10 -17 -10 -18 0 -20 -2 -8 -10 8 -5 11 -10 5
-10 -20 0 -38 17 -26 24 6 4 11 13 11 19 0 7 -4 6 -10 -3 -7 -11 -10 -11 -10
-2 0 7 -5 10 -10 7 -6 -4 -7 -11 -4 -17 4 -6 2 -8 -4 -4 -6 3 -14 1 -19 -6 -4
-7 -18 -14 -30 -14 -19 -1 -21 1 -12 19 8 14 8 18 0 13 -31 -19 4 42 43 76 49
43 27 33 -34 -15z m108 -150 c13 -30 29 -47 48 -54 16 -6 38 -14 49 -18 18 -7
16 -9 -13 -18 -36 -11 -73 -54 -90 -102 l-10 -30 -16 37 c-18 42 -55 74 -96
83 -31 7 -41 25 -15 25 9 0 33 9 55 20 30 16 42 29 51 60 7 22 13 40 15 40 2
0 12 -19 22 -43z m382 -31 c0 -9 -30 -14 -35 -6 -4 6 3 10 14 10 12 0 21 -2
21 -4z m-546 -218 c6 -13 30 -32 53 -43 l41 -20 -38 -16 c-25 -11 -45 -29 -57
-53 l-19 -37 -17 36 c-10 21 -30 42 -52 52 -19 9 -35 20 -35 23 0 4 18 14 40
23 26 10 43 25 50 43 11 29 17 27 34 -8z"/>
<path d="M3710 8513 c0 -6 8 -17 18 -24 16 -13 16 -13 2 6 -8 11 -16 22 -17
24 -2 2 -3 0 -3 -6z"/>
<path d="M3649 8483 c-13 -15 -12 -15 9 -4 23 12 28 21 13 21 -5 0 -15 -7 -22
-17z"/>
<path d="M3656 8425 c43 -40 56 -45 28 -12 -25 30 -46 47 -57 47 -5 0 8 -16
29 -35z"/>
<path d="M3733 8438 c-31 -40 -27 -50 5 -13 12 14 18 25 13 25 -5 0 -13 -6
-18 -12z"/>
<path d="M4110 8307 c-133 -40 -469 -152 -508 -168 -41 -18 -45 -22 -29 -31
10 -5 55 -16 100 -24 99 -17 143 -41 139 -75 -4 -38 -24 -52 -57 -39 -44 17
-40 5 9 -24 25 -14 67 -28 93 -31 47 -5 47 -5 13 6 -36 11 -63 29 -44 29 6 0
46 -9 88 -20 92 -23 181 -69 226 -115 l33 -35 49 46 c27 25 81 61 121 79 67
32 77 34 142 28 59 -5 71 -8 71 -24 0 -9 -3 -16 -6 -14 -3 1 -11 -3 -18 -11
-11 -12 -10 -14 3 -14 25 0 78 -59 66 -74 -6 -7 -9 -16 -6 -19 3 -4 2 -4 -2
-1 -5 3 -8 11 -8 17 0 7 -4 12 -10 12 -5 1 -30 14 -55 30 -37 24 -55 30 -100
29 -106 -1 -209 -73 -231 -160 -7 -26 -16 -41 -22 -37 -7 4 -8 0 -4 -11 4 -10
7 -33 7 -52 0 -19 5 -34 10 -34 6 0 10 26 10 58 1 95 39 157 125 200 64 33
125 37 171 14 83 -42 124 -104 132 -197 6 -78 -24 -151 -81 -200 -50 -43 -105
-55 -186 -42 -59 9 -61 11 -61 39 0 122 -157 149 -215 38 -8 -16 -15 -38 -15
-48 0 -20 -38 -32 -100 -32 -179 0 -285 232 -168 366 41 46 80 66 153 75 l60
8 -65 -3 c-44 -2 -82 -12 -117 -29 -51 -24 -69 -23 -38 3 12 10 12 15 -5 33
-11 11 -20 30 -20 41 0 10 -3 16 -6 13 -7 -7 -56 56 -67 86 -10 26 -22 21 -40
-18 -10 -19 -24 -50 -33 -69 -17 -36 -13 -68 14 -98 8 -10 20 -18 27 -18 28 0
33 -22 18 -83 -11 -44 -13 -93 -10 -168 l5 -106 -51 -45 c-29 -25 -65 -68 -81
-97 -24 -45 -55 -167 -56 -223 0 -25 22 -22 39 3 12 21 14 19 43 -37 30 -60
69 -108 101 -125 14 -8 19 -5 27 16 5 14 13 25 17 24 5 0 31 -27 58 -59 28
-32 58 -61 67 -65 10 -3 17 -9 16 -13 -4 -24 28 -72 57 -86 19 -9 37 -21 40
-26 3 -6 14 -10 23 -10 12 0 7 10 -19 38 -19 20 -44 48 -54 61 l-20 24 85 -6
c47 -3 92 -8 101 -11 8 -4 20 -26 27 -51 10 -38 18 -47 62 -69 36 -18 59 -24
80 -19 32 6 38 17 42 88 l3 40 88 14 c77 13 90 13 98 0 5 -7 7 -19 5 -24 -2
-6 4 -12 14 -12 12 -1 23 10 31 30 12 30 122 147 138 147 4 0 13 -11 19 -25
14 -31 18 -31 66 3 65 45 98 94 100 146 1 46 11 60 22 31 4 -8 12 -15 20 -15
35 0 1 149 -52 230 -24 35 -144 147 -144 134 0 -4 7 -16 17 -26 9 -10 13 -21
9 -25 -4 -4 -12 -1 -17 7 -7 10 -9 -10 -5 -65 3 -60 2 -70 -4 -40 -14 61 -11
145 5 199 21 70 19 123 -11 217 -28 88 -25 101 23 104 15 1 33 3 40 3 15 2 10
31 -6 42 -9 5 -10 13 -3 26 5 11 13 43 17 72 8 61 -1 65 -60 31 -19 -12 -53
-25 -75 -30 -38 -9 -43 -7 -75 26 -19 19 -35 39 -35 44 0 5 33 21 73 36 39 15
84 31 99 37 15 6 33 16 39 24 19 23 -66 56 -407 153 -78 23 -145 41 -150 40
-5 -1 -25 -6 -44 -12z m594 -360 c-57 -65 -60 -66 -18 -5 21 31 42 54 47 51 4
-2 -9 -23 -29 -46z m-64 -12 c0 -8 -9 -15 -19 -15 -11 0 -23 -4 -26 -10 -3 -5
-11 -10 -17 -10 -23 0 26 41 60 49 1 1 2 -6 2 -14z m-1005 -65 c3 -5 1 -10 -4
-10 -6 0 -11 5 -11 10 0 6 2 10 4 10 3 0 8 -4 11 -10z m599 -361 c43 -34 31
-124 -24 -174 -20 -18 -21 -18 -38 -1 -16 16 -16 17 1 10 11 -4 25 0 37 11 27
25 25 38 -5 31 -18 -5 -27 -2 -31 9 -4 9 -19 15 -40 15 -31 0 -34 2 -34 31 0
38 48 89 83 89 13 0 36 -9 51 -21z m173 -177 c70 -3 82 -1 115 21 l37 26 6
-30 c8 -34 -2 -137 -21 -232 -18 -88 -51 -151 -110 -209 -63 -63 -134 -91
-239 -94 l-80 -2 80 7 c57 5 97 16 140 37 54 26 60 33 63 62 2 18 10 41 18 50
35 39 104 131 104 137 0 4 -21 -16 -47 -45 -49 -54 -134 -117 -193 -141 -52
-21 -160 -15 -215 11 -48 23 -122 100 -131 138 -11 39 -19 24 -16 -28 3 -32 0
-50 -7 -50 -6 0 -11 6 -11 14 0 7 -7 19 -15 26 -8 7 -12 17 -8 24 3 6 2 8 -2
3 -5 -4 -17 10 -26 30 -10 21 -18 32 -19 25 0 -7 16 -46 35 -86 32 -67 81
-125 141 -164 10 -7 5 -6 -12 2 -47 23 -102 85 -138 156 -39 77 -55 140 -65
251 -7 78 -6 80 14 73 11 -3 54 -8 95 -11 60 -4 86 -1 130 16 l54 21 43 -42
c38 -38 46 -41 70 -32 15 5 40 28 56 52 l28 42 24 -28 c21 -24 31 -27 102 -30z
m-602 38 c3 -5 1 -10 -4 -10 -6 0 -11 5 -11 10 0 6 2 10 4 10 3 0 8 -4 11 -10z
m902 -42 c-3 -7 -5 -2 -5 12 0 14 2 19 5 13 2 -7 2 -19 0 -25z m-10 -110 c-3
-8 -6 -5 -6 6 -1 11 2 17 5 13 3 -3 4 -12 1 -19z m10 -40 c-3 -8 -6 -5 -6 6
-1 11 2 17 5 13 3 -3 4 -12 1 -19z m10 -40 c-3 -8 -6 -5 -6 6 -1 11 2 17 5 13
3 -3 4 -12 1 -19z m0 -80 c-2 -13 -4 -5 -4 17 -1 22 1 32 4 23 2 -10 2 -28 0
-40z m-1000 -90 c-3 -8 -6 -5 -6 6 -1 11 2 17 5 13 3 -3 4 -12 1 -19z"/>
<path d="M4000 7181 c0 -18 39 -32 72 -27 30 5 74 36 51 36 -7 0 -15 -4 -18
-10 -8 -13 -61 -13 -86 0 -12 7 -19 7 -19 1z"/>
<path d="M4381 7164 c13 -16 91 -12 97 4 3 11 0 12 -17 3 -12 -7 -27 -8 -34
-4 -20 13 -58 11 -46 -3z"/>
<path d="M4053 7076 c6 -19 80 -49 133 -54 52 -4 97 11 123 41 8 10 -1 9 -28
-5 -56 -28 -115 -26 -179 4 -29 14 -51 20 -49 14z"/>
<path d="M4459 6973 c-13 -16 -12 -17 4 -4 9 7 17 15 17 17 0 8 -8 3 -21 -13z"/>
<path d="M2687 7939 c-118 -319 -96 -586 70 -836 125 -189 401 -378 428 -293
3 11 9 20 13 20 4 0 21 13 39 30 20 19 47 32 75 37 31 5 37 8 23 12 -33 10
-146 71 -210 114 -212 142 -349 334 -411 577 -25 100 -26 290 -1 374 29 93 14
74 -26 -35z"/>
<path d="M7393 7850 c0 -25 2 -35 4 -22 2 12 2 32 0 45 -2 12 -4 2 -4 -23z"/>
<path d="M4045 7821 c46 -21 74 -49 104 -106 13 -25 19 -30 15 -15 -12 46 -45
90 -88 115 -24 14 -49 25 -57 25 -8 0 4 -9 26 -19z"/>
<path d="M7561 7794 c0 -11 3 -14 6 -6 3 7 2 16 -1 19 -3 4 -6 -2 -5 -13z"/>
<path d="M7014 7776 c-3 -7 -4 -33 -1 -57 l4 -44 1 52 c1 30 7 53 15 56 9 4 9
6 -1 6 -7 1 -15 -5 -18 -13z"/>
<path d="M3914 7751 c-39 -17 -74 -70 -74 -112 0 -102 97 -162 180 -112 97 57
60 214 -52 228 -18 3 -42 1 -54 -4z m76 -51 c24 -24 25 -43 4 -64 -18 -19 -28
-20 -55 -6 -25 14 -26 65 -1 79 24 15 29 14 52 -9z"/>
<path d="M4354 7750 c-84 -34 -85 -180 -2 -226 13 -8 40 -13 62 -14 30 0 45 7
72 34 30 30 34 40 34 88 0 32 -6 62 -16 76 -31 44 -98 63 -150 42z m86 -50
c25 -25 25 -32 2 -60 -23 -28 -59 -20 -72 16 -15 38 -2 56 43 63 4 0 16 -8 27
-19z"/>
<path d="M7562 7730 c0 -19 2 -27 5 -17 2 9 2 25 0 35 -3 9 -5 1 -5 -18z"/>
<path d="M7384 7615 c0 -49 1 -71 3 -48 2 23 2 64 0 90 -2 26 -3 8 -3 -42z"/>
<path d="M6978 7603 c7 -3 16 -2 19 1 4 3 -2 6 -13 5 -11 0 -14 -3 -6 -6z"/>
<path d="M7228 7603 c17 -2 47 -2 65 0 17 2 3 4 -33 4 -36 0 -50 -2 -32 -4z"/>
<path d="M6519 7576 c-42 -29 -82 -85 -105 -146 -25 -68 -31 -246 -10 -306 42
-123 107 -167 245 -168 72 0 95 4 141 26 30 14 66 34 79 45 l24 20 -18 50 -18
51 -51 -24 c-35 -16 -69 -24 -109 -24 -54 0 -62 3 -93 34 -23 23 -34 43 -34
63 l0 29 89 10 c101 12 192 51 225 96 22 31 34 126 18 154 -7 13 -9 6 -5 -28
8 -66 -3 -101 -27 -95 -16 4 -18 2 -10 -13 7 -13 5 -22 -9 -34 -19 -17 -20
-15 -22 37 0 10 -8 17 -20 17 -10 0 -19 5 -19 10 0 6 -6 10 -14 10 -8 0 -16 5
-18 11 -2 6 -9 -1 -16 -17 -11 -24 -11 -26 2 -15 11 9 16 9 22 0 4 -7 3 -9 -3
-6 -6 4 -14 -1 -17 -10 -5 -11 -10 -13 -17 -6 -7 7 -25 6 -56 -3 -26 -8 -60
-14 -76 -14 -29 0 -29 1 -23 42 10 61 35 108 70 129 17 10 25 19 17 19 -23 0
-80 -69 -87 -105 -7 -41 -19 -51 -39 -35 -8 7 -15 9 -15 4 0 -4 -5 -3 -12 4
-8 8 -17 8 -31 1 -14 -8 -18 -8 -13 0 9 14 0 14 -25 0 -11 -5 -17 -14 -14 -20
4 -5 1 -9 -5 -9 -15 0 -5 52 21 105 24 50 58 89 101 115 18 11 28 20 23 20 -6
0 -26 -11 -46 -24z m181 -246 c0 -5 -5 -10 -11 -10 -5 0 -7 5 -4 10 3 6 8 10
11 10 2 0 4 -4 4 -10z"/>
<path d="M7609 7563 c-13 -16 -12 -17 4 -4 9 7 17 15 17 17 0 8 -8 3 -21 -13z"/>
<path d="M8049 7543 l-24 -28 28 24 c15 14 27 26 27 28 0 8 -8 1 -31 -24z"/>
<path d="M6112 7530 c0 -14 4 -38 8 -55 7 -27 8 -27 8 -5 0 14 -4 39 -8 55 -7
27 -8 27 -8 5z"/>
<path d="M6272 7525 c0 -16 2 -22 5 -12 2 9 2 23 0 30 -3 6 -5 -1 -5 -18z"/>
<path d="M6931 7534 c0 -11 3 -14 6 -6 3 7 2 16 -1 19 -3 4 -6 -2 -5 -13z"/>
<path d="M6876 7527 c3 -10 9 -15 12 -12 3 3 0 11 -7 18 -10 9 -11 8 -5 -6z"/>
<path d="M5850 7518 c0 -5 -160 -445 -189 -520 l-11 -28 108 0 108 0 23 88
c13 49 26 95 31 102 5 9 41 13 126 14 l117 1 20 -102 19 -103 94 0 c93 0 94 0
89 23 -3 12 -26 119 -50 237 -24 118 -42 190 -40 160 3 -30 2 -48 -2 -40 -3 8
-12 21 -20 28 -7 8 -10 19 -7 25 5 9 4 9 -6 0 -10 -9 -16 -9 -25 1 -7 7 -24
12 -37 10 -12 -1 -26 -3 -30 -3 -5 -1 -8 -11 -9 -23 -1 -17 -5 -12 -15 17
l-14 40 5 -40 c3 -22 8 -50 11 -62 6 -23 5 -23 -90 -23 -80 0 -96 3 -96 16 0
9 -5 12 -12 8 -7 -4 -8 -3 -4 5 4 6 0 14 -8 17 -9 3 -16 15 -16 26 0 14 -5 18
-16 14 -9 -3 -18 -6 -20 -6 -3 0 -2 -4 1 -10 3 -6 -1 -7 -9 -4 -9 3 -13 11
-10 18 3 6 -2 2 -10 -8 -9 -11 -16 -14 -16 -7 0 7 -4 9 -10 6 -15 -9 -12 3 10
64 12 29 18 56 15 59 -3 3 -5 3 -5 0z m-39 -165 c-12 -20 -14 -14 -5 12 4 9 9
14 11 11 3 -2 0 -13 -6 -23z"/>
<path d="M6700 7516 c0 -2 7 -7 16 -10 8 -3 12 -2 9 4 -6 10 -25 14 -25 6z"/>
<path d="M7999 7469 c-11 -23 -27 -77 -36 -122 -20 -108 -11 -190 31 -270 27
-53 39 -65 88 -90 47 -25 68 -29 131 -29 88 0 159 21 207 61 34 28 34 28 21
68 -21 64 -22 65 -76 38 -58 -30 -142 -34 -180 -9 -21 14 -64 100 -54 107 2 2
46 8 98 15 112 13 193 48 222 96 10 17 19 36 19 41 0 6 -8 -3 -19 -20 -10 -16
-28 -39 -40 -50 -19 -16 -24 -17 -31 -5 -6 8 -10 11 -10 6 0 -6 -5 -5 -12 2
-8 8 -15 9 -25 1 -10 -9 -13 -6 -13 12 0 18 -3 20 -9 10 -5 -8 -30 -16 -56
-19 -34 -3 -46 -1 -41 7 4 6 12 9 17 6 5 -4 9 -2 9 3 0 10 -97 4 -121 -9 -18
-9 -33 -1 -42 24 -7 19 -25 22 -47 6 -12 -8 -10 -9 8 -4 14 4 22 2 22 -6 0 -7
-3 -9 -6 -6 -4 3 -16 2 -27 -4 -11 -7 -17 -7 -13 -1 7 12 -18 35 -27 25 -17
-16 -4 57 18 105 29 62 25 70 -6 11z m354 -196 c-7 -2 -19 -2 -25 0 -7 3 -2 5
12 5 14 0 19 -2 13 -5z"/>
<path d="M6741 7495 c0 -5 6 -21 14 -35 8 -14 14 -20 14 -15 0 6 -6 21 -14 35
-8 14 -14 21 -14 15z"/>
<path d="M6281 7474 c0 -11 3 -14 6 -6 3 7 2 16 -1 19 -3 4 -6 -2 -5 -13z"/>
<path d="M6968 7483 c7 -3 16 -2 19 1 4 3 -2 6 -13 5 -11 0 -14 -3 -6 -6z"/>
<path d="M7218 7483 c17 -2 47 -2 65 0 17 2 3 4 -33 4 -36 0 -50 -2 -32 -4z"/>
<path d="M7889 7428 c-1 -72 -16 -174 -18 -123 -1 23 -8 33 -28 42 -51 20 -84
22 -103 3 -16 -16 -17 -15 -18 24 -1 22 -5 43 -10 47 -11 12 -14 -348 -2 -392
13 -49 49 -69 122 -69 71 0 118 28 118 70 0 25 -4 30 -25 30 -36 0 -39 25 -31
242 3 103 4 188 1 188 -3 0 -5 -28 -6 -62z"/>
<path d="M7168 7408 l-3 -71 -32 27 c-18 15 -33 23 -33 16 0 -7 -6 -5 -16 4
-18 19 -49 22 -38 4 5 -8 2 -9 -10 -5 -9 4 -14 3 -11 -2 3 -5 1 -12 -5 -16 -6
-4 -10 15 -11 52 -2 114 -16 10 -24 -168 -8 -200 1 -240 58 -274 52 -31 198
-21 249 18 14 11 15 20 6 58 l-11 46 -47 -5 c-71 -7 -74 3 -65 215 4 95 4 173
1 173 -3 0 -6 -32 -8 -72z"/>
<path d="M7367 7325 c-4 -88 -10 -204 -14 -257 l-6 -98 95 0 95 0 1 103 c4
235 18 305 70 355 25 24 25 25 3 11 -13 -8 -32 -30 -41 -47 -10 -17 -21 -28
-25 -24 -5 4 -5 1 -1 -5 5 -9 2 -11 -8 -7 -9 3 -16 10 -16 15 0 5 -9 9 -21 9
-11 0 -18 4 -15 8 6 10 -30 9 -40 0 -3 -4 -17 -3 -30 2 -21 8 -24 6 -26 -13
-1 -12 -4 7 -7 43 -5 54 -7 37 -14 -95z"/>
<path d="M8473 7430 c0 -25 2 -35 4 -22 2 12 2 32 0 45 -2 12 -4 2 -4 -23z"/>
<path d="M5981 7434 c0 -11 3 -14 6 -6 3 7 2 16 -1 19 -3 4 -6 -2 -5 -13z"/>
<path d="M8537 7240 c-4 -102 -10 -204 -13 -227 l-6 -43 99 0 100 0 7 133 c4
72 9 150 12 172 4 39 4 40 -7 10 -17 -42 -30 -47 -56 -23 -13 12 -26 19 -29
15 -3 -3 -23 1 -45 8 -35 13 -39 13 -41 -3 -1 -9 -4 19 -7 63 -5 69 -7 54 -14
-105z"/>
<path d="M5971 7403 c-1 -6 -4 -20 -7 -30 -5 -17 -5 -17 6 0 6 10 9 23 6 30
-3 9 -5 9 -5 0z"/>
<path d="M7130 7388 c0 -9 5 -20 10 -23 13 -8 13 5 0 25 -8 13 -10 13 -10 -2z"/>
<path d="M8128 7377 c-3 -19 -2 -25 4 -19 6 6 8 18 6 28 -3 14 -5 12 -10 -9z"/>
<path d="M8295 7370 c-15 -17 -16 -20 -3 -20 9 0 18 9 21 20 3 11 4 20 3 20
-2 0 -11 -9 -21 -20z"/>
<path d="M3165 7339 c-110 -22 -157 -23 -214 -3 -24 8 -45 13 -48 11 -14 -14
163 -210 262 -289 46 -37 151 -98 168 -98 9 0 42 -7 74 -15 86 -22 104 -19 47
10 -100 50 -197 143 -269 258 -19 32 -19 32 0 17 11 -8 64 -54 118 -102 64
-57 107 -88 122 -88 23 0 23 0 9 47 -28 91 -14 172 38 230 l20 21 -89 6 c-48
4 -101 8 -118 10 -16 2 -70 -5 -120 -15z"/>
<path d="M6837 7335 c3 -8 9 -12 14 -9 12 7 11 11 -5 17 -10 4 -13 1 -9 -8z"/>
<path d="M10701 7188 c0 -38 2 -68 7 -68 4 0 6 21 4 48 -5 82 -9 89 -11 20z"/>
<path d="M11503 7180 c0 -36 2 -50 4 -32 2 17 2 47 0 65 -2 17 -4 3 -4 -33z"/>
<path d="M11152 7200 c0 -19 2 -27 5 -17 2 9 2 25 0 35 -3 9 -5 1 -5 -18z"/>
<path d="M9052 7144 c-1 -28 -5 -79 -8 -113 l-7 -61 234 2 234 3 1 70 c2 58 1
62 -5 25 -6 -40 -7 -42 -15 -21 -6 18 -10 21 -17 10 -5 -9 -9 -10 -9 -2 0 12
-39 11 -60 -2 -8 -5 -11 -4 -6 3 4 7 -4 10 -23 10 -19 -1 -28 -5 -25 -12 3 -6
-2 -2 -10 8 -15 19 -16 19 -36 1 -18 -17 -25 -14 -21 9 1 5 -5 6 -13 3 -8 -3
-17 -1 -20 6 -3 8 -7 9 -13 2 -4 -5 -14 -11 -22 -13 -12 -3 -12 0 -2 12 10 12
9 14 -8 9 -12 -3 -21 -8 -21 -12 0 -3 -16 -6 -35 -6 -19 0 -35 2 -35 5 0 14
-40 4 -42 -10 -1 -8 -4 17 -8 55 -6 65 -7 67 -8 19z m351 -161 c-13 -2 -33 -2
-45 0 -13 2 -3 4 22 4 25 0 35 -2 23 -4z m70 0 c-7 -2 -19 -2 -25 0 -7 3 -2 5
12 5 14 0 19 -2 13 -5z"/>
<path d="M9238 7167 c-3 -19 -2 -25 4 -19 6 6 8 18 6 28 -3 14 -5 12 -10 -9z"/>
<path d="M9531 7164 c0 -11 3 -14 6 -6 3 7 2 16 -1 19 -3 4 -6 -2 -5 -13z"/>
<path d="M9710 7153 c0 -6 8 -17 18 -24 16 -13 16 -13 2 6 -8 11 -16 22 -17
24 -2 2 -3 0 -3 -6z"/>
<path d="M10074 7107 c3 -67 24 -103 77 -129 48 -25 132 -23 186 3 44 21 94
75 92 100 0 8 -4 4 -9 -8 -9 -22 -33 -24 -62 -7 -6 4 -8 3 -5 -3 10 -16 -22
-24 -44 -12 -15 7 -24 7 -35 -2 -10 -8 -14 -8 -14 0 0 7 -10 10 -25 7 -13 -3
-28 0 -31 6 -5 7 -2 8 6 3 8 -5 11 -4 7 2 -8 13 -57 4 -57 -11 0 -7 -3 -7 -8
-1 -4 6 -16 17 -27 25 l-20 15 20 -24 20 -24 -22 12 c-18 9 -23 9 -23 0 0 -31
-15 8 -22 54 l-7 52 3 -58z m63 -73 c-3 -3 -12 -4 -19 -1 -8 3 -5 6 6 6 11 1
17 -2 13 -5z"/>
<path d="M9540 7132 c-1 -50 85 -144 150 -162 75 -21 251 -5 234 21 -3 5 2 6
10 3 19 -7 86 37 85 56 -1 29 -35 94 -43 82 -4 -7 -2 -12 5 -12 8 0 9 -11 5
-32 -4 -21 -3 -28 3 -19 5 8 11 9 15 3 3 -5 -2 -13 -11 -17 -10 -3 -19 -2 -21
4 -2 5 -10 7 -19 4 -13 -5 -11 -9 8 -25 23 -19 23 -19 2 -8 -13 6 -23 7 -23 3
0 -4 -7 1 -15 11 -9 12 -15 15 -15 7 0 -11 -3 -11 -15 -1 -8 6 -20 10 -27 7
-7 -2 -21 0 -32 5 -30 16 -65 16 -70 1 -3 -8 -10 -11 -16 -8 -6 4 -8 11 -5 16
4 5 -1 9 -10 9 -12 0 -15 -5 -11 -16 5 -14 4 -15 -9 -4 -8 7 -13 16 -10 20 2
4 -21 7 -53 7 -75 0 -85 3 -99 33 -7 14 -12 19 -13 12z m49 -58 c4 3 8 -1 8
-9 0 -11 -4 -12 -14 -4 -7 6 -13 17 -12 23 0 7 2 6 6 -2 2 -6 8 -10 12 -8z
m286 -42 c-3 -3 -16 -6 -29 -7 -18 0 -22 3 -15 11 5 7 19 10 30 7 11 -3 17 -8
14 -11z"/>
<path d="M10240 7126 c0 -8 4 -17 9 -20 5 -4 7 3 4 14 -6 23 -13 26 -13 6z"/>
<path d="M10880 7116 c0 -26 -24 -51 -40 -41 -5 3 -10 2 -10 -4 0 -13 -41 -5
-51 10 -4 7 -16 9 -27 6 -12 -2 -23 0 -26 7 -2 6 -8 0 -12 -12 -5 -16 -9 -20
-14 -11 -4 6 -8 -14 -9 -45 l0 -57 97 3 97 3 3 33 c2 18 -3 41 -10 50 -9 11
-10 14 0 8 9 -5 12 4 12 33 0 23 -2 41 -5 41 -3 0 -5 -11 -5 -24z"/>
<path d="M11320 7090 c0 -22 -4 -40 -10 -40 -5 0 -10 6 -10 13 0 10 -13 13
-52 10 -29 -2 -61 -4 -70 -4 -11 0 -19 -9 -20 -22 0 -12 -4 1 -8 28 -6 47 -7
45 -8 -27 l-2 -78 95 0 95 0 0 80 c0 44 -2 80 -5 80 -3 0 -5 -18 -5 -40z m-1
-73 c-1 -18 -2 -19 -6 -4 -3 13 -8 15 -17 8 -9 -8 -13 -7 -13 2 0 7 9 14 19
14 13 1 18 -5 17 -20z"/>
<path d="M9258 7103 c7 -3 16 -2 19 1 4 3 -2 6 -13 5 -11 0 -14 -3 -6 -6z"/>
<path d="M11501 7067 c-1 -41 3 -53 28 -78 18 -17 41 -29 58 -30 62 -2 106 3
139 17 26 11 33 19 30 37 -3 18 -9 22 -37 21 -19 0 -46 -3 -61 -7 -15 -3 -30
-1 -34 4 -3 5 -2 9 3 8 4 -1 19 -1 33 0 20 1 25 7 26 29 1 15 -1 21 -3 14 -4
-9 -9 -10 -17 -3 -9 8 -13 7 -13 -4 0 -8 5 -11 11 -8 6 3 5 0 -2 -8 -9 -9 -15
-10 -20 -3 -4 6 -20 10 -37 10 -19 -1 -29 4 -27 12 3 15 -1 15 -33 0 -14 -6
-26 -16 -26 -22 -1 -6 -5 5 -9 24 -7 34 -7 34 -9 -13z m97 -34 c-10 -2 -26 -2
-35 0 -10 3 -2 5 17 5 19 0 27 -2 18 -5z"/>
<path d="M9828 7083 c7 -3 16 -2 19 1 4 3 -2 6 -13 5 -11 0 -14 -3 -6 -6z"/>
<path d="M10288 7083 c6 -2 18 -2 25 0 6 3 1 5 -13 5 -14 0 -19 -2 -12 -5z"/>
<path d="M10436 7063 c-15 -67 36 -111 115 -100 58 8 89 31 89 68 0 17 -4 28
-9 24 -5 -3 -17 5 -27 17 -10 15 -14 17 -11 6 8 -24 -8 -31 -27 -12 -9 8 -16
12 -16 8 0 -5 -5 -3 -12 4 -8 8 -19 8 -44 -3 -30 -12 -35 -12 -43 2 -7 13 -10
11 -15 -14z m31 -29 c-3 -3 -12 -4 -19 -1 -8 3 -5 6 6 6 11 1 17 -2 13 -5z"/>
<path d="M10460 7079 c0 -5 5 -7 10 -4 6 3 10 8 10 11 0 2 -4 4 -10 4 -5 0
-10 -5 -10 -11z"/>
<path d="M4022 6760 c0 -14 2 -19 5 -12 2 6 2 18 0 25 -3 6 -5 1 -5 -13z"/>
<path d="M4305 6770 c-3 -5 -1 -10 4 -10 6 0 11 5 11 10 0 6 -2 10 -4 10 -3 0
-8 -4 -11 -10z"/>
<path d="M4321 6734 c0 -11 3 -14 6 -6 3 7 2 16 -1 19 -3 4 -6 -2 -5 -13z"/>
<path d="M4615 6641 c-140 -23 -236 -58 -325 -117 l-72 -47 -106 51 c-249 117
-533 142 -882 76 -80 -15 -158 -28 -175 -29 -19 -1 -31 -8 -33 -19 -4 -19 27
-72 62 -105 24 -23 25 -23 88 -7 35 9 132 24 217 33 207 23 348 11 505 -42 60
-20 118 -42 130 -50 45 -29 131 -56 180 -56 42 -1 70 9 161 55 265 133 482
147 888 59 21 -4 34 0 52 17 28 26 49 74 42 93 -6 17 -131 52 -257 73 -109 18
-401 27 -475 15z"/>
<path d="M3628 6463 c7 -3 16 -2 19 1 4 3 -2 6 -13 5 -11 0 -14 -3 -6 -6z"/>
<path d="M3920 4500 l0 -680 3595 0 3595 0 0 680 0 680 -3595 0 -3595 0 0
-680z m1340 482 c0 -4 -37 -52 -83 -107 -95 -115 -130 -165 -177 -253 -42 -80
-51 -74 -11 7 37 73 24 80 -33 19 l-39 -43 37 53 c20 28 36 55 36 59 0 13 -44
-34 -87 -94 -51 -71 -62 -80 -33 -26 10 20 16 41 13 46 -3 6 -1 7 4 4 6 -4 13
3 17 16 8 31 7 37 -5 37 -5 0 -8 -4 -5 -8 2 -4 0 -14 -5 -22 -9 -13 -10 -13
-6 0 8 27 -12 52 -36 45 -21 -6 -22 -6 -3 9 18 15 15 21 -7 17 -5 -1 -6 3 -3
8 4 5 2 12 -4 16 -6 4 2 28 19 60 24 45 26 53 11 45 -38 -20 -147 -137 -184
-198 -22 -34 -41 -62 -43 -62 -10 0 43 85 91 146 95 119 203 189 337 218 70
15 199 21 199 8z m75 -132 c64 -145 116 -272 140 -342 l23 -66 -26 -10 c-77
-29 -76 -29 -118 63 -22 47 -41 85 -44 85 -3 0 -49 -67 -104 -149 -91 -138
-101 -150 -137 -159 -38 -10 -39 -9 -39 17 0 41 35 169 76 277 51 136 173 389
183 378 5 -5 26 -47 46 -94z m1828 -177 c-2 -60 -5 -118 -7 -130 -2 -13 -2
-23 -1 -23 2 0 19 16 38 35 49 49 125 53 165 9 20 -23 22 -34 22 -157 0 -120
2 -134 20 -150 42 -35 14 -67 -60 -67 -31 0 -47 6 -67 26 -25 25 -26 27 -19
137 3 62 2 118 -2 125 -14 21 -53 10 -75 -20 -23 -31 -35 -99 -36 -200 l-1
-68 -62 0 -61 0 7 123 c3 67 9 194 12 282 3 88 7 166 10 173 2 8 24 12 63 12
l59 0 -5 -107z m1113 -134 c-9 -122 -16 -229 -16 -236 0 -10 22 -13 85 -13
l85 0 0 -45 0 -45 -146 0 -147 0 7 88 c3 48 8 146 11 217 3 72 8 158 11 192
l5 62 57 3 c31 2 58 2 60 2 2 -1 -4 -102 -12 -225z m-1994 71 c36 -180 78
-381 84 -402 5 -16 -2 -18 -60 -18 l-65 0 -7 38 c-17 103 -11 97 -97 100 l-76
3 -22 -71 -21 -70 -65 0 c-58 0 -65 2 -60 18 3 9 33 91 67 182 34 91 75 203
92 250 17 47 35 90 39 96 5 6 42 10 86 10 l78 -1 27 -135z m626 30 l-5 -50 43
0 44 0 0 -40 0 -40 -44 0 -44 0 -7 -94 c-9 -120 -4 -136 40 -136 29 0 34 -4
40 -32 9 -38 -7 -52 -66 -62 -30 -5 -51 -2 -78 11 -56 28 -63 50 -55 191 6
119 6 122 -15 122 -18 0 -21 6 -21 40 0 36 3 40 25 40 22 0 25 4 25 39 0 39 1
40 43 49 80 18 80 18 75 -38z m-2287 -67 c-12 -20 -14 -14 -5 12 4 9 9 14 11
11 3 -2 0 -13 -6 -23z m3447 18 c9 -5 12 -25 10 -62 -3 -51 -4 -54 -28 -51
-37 4 -76 -16 -90 -46 -7 -15 -16 -74 -19 -132 l-6 -105 -63 -3 -63 -3 6 188
c4 103 8 194 11 201 2 8 23 12 59 12 l55 0 0 -41 0 -42 23 34 c32 48 76 69
105 50z m-1403 -23 c40 -31 56 -77 44 -121 -16 -58 -75 -92 -171 -99 -29 -1
-38 -6 -38 -19 0 -43 79 -62 145 -35 33 14 34 14 44 -16 6 -17 11 -35 11 -40
0 -20 -86 -48 -150 -48 -115 0 -170 59 -170 183 0 102 34 177 94 203 17 7 61
13 97 14 53 0 72 -4 94 -22z m1045 7 c61 -31 75 -111 30 -168 -23 -29 -97 -57
-152 -57 -44 0 -46 -7 -17 -44 24 -30 77 -35 134 -12 33 14 34 14 44 -16 6
-17 11 -35 11 -40 0 -19 -86 -48 -145 -48 -72 0 -121 22 -151 68 -62 92 -24
270 67 315 43 21 140 22 179 2z m1041 -23 c32 -35 38 -81 17 -127 -14 -31 -94
-71 -160 -80 -39 -5 -46 -9 -41 -23 17 -49 65 -61 137 -37 26 9 50 15 52 13 2
-2 5 -19 6 -38 3 -32 0 -35 -42 -51 -57 -23 -142 -24 -186 -3 -54 26 -84 86
-84 168 0 72 17 126 53 165 36 39 75 52 151 48 63 -3 71 -5 97 -35z m371 0
l33 -33 -3 -111 c-2 -127 2 -148 29 -148 30 0 25 -44 -6 -58 -53 -24 -125 -3
-125 35 0 14 -4 13 -22 -4 -36 -32 -63 -43 -108 -43 -33 0 -48 6 -71 29 -16
16 -29 38 -30 48 -6 100 36 143 159 163 31 6 58 10 60 10 1 0 2 10 2 23 0 50
-38 59 -120 28 l-50 -19 -15 35 c-9 20 -14 37 -12 39 1 2 23 12 47 23 35 16
62 20 122 18 73 -2 80 -4 110 -35z m228 -11 l0 -46 26 42 c25 43 52 57 95 51
28 -4 37 -46 19 -92 -9 -24 -14 -27 -39 -21 -22 5 -35 0 -55 -17 -33 -28 -45
-78 -46 -180 l0 -78 -60 0 -60 0 6 183 c3 100 7 187 9 192 1 6 26 10 54 11
l51 1 0 -46z m310 14 c0 -19 2 -35 4 -35 2 0 20 16 39 35 31 31 41 35 84 35
40 0 54 -5 74 -26 23 -25 24 -30 21 -161 -3 -128 -2 -135 18 -140 25 -7 28
-58 4 -67 -33 -12 -92 -6 -115 13 -23 18 -24 25 -24 148 l0 128 -29 0 c-56 0
-84 -71 -85 -225 l-1 -65 -57 2 c-49 1 -58 4 -58 20 0 60 18 359 22 366 2 4
26 7 54 7 l49 0 0 -35z m-4839 -68 c-10 -9 -11 -8 -5 6 3 10 9 15 12 12 3 -3
0 -11 -7 -18z m-134 -83 c-3 -3 -12 -4 -19 -1 -8 3 -5 6 6 6 11 1 17 -2 13 -5z
m927 -20 c9 -3 16 -17 16 -30 0 -15 9 -27 28 -36 20 -10 29 -23 34 -53 3 -22
9 -51 14 -64 4 -14 3 -22 -2 -19 -5 4 -59 11 -121 17 -174 18 -308 -11 -441
-96 l-53 -34 -37 29 c-95 75 -201 104 -377 104 -70 0 -144 -6 -177 -15 -56
-14 -58 -14 -58 5 0 11 9 31 20 46 16 20 18 27 8 34 -10 6 -5 16 20 37 17 15
32 33 32 39 0 20 45 24 139 13 146 -18 275 -74 371 -162 l42 -38 40 37 c63 58
156 120 217 143 104 39 241 60 285 43z m-1139 -287 c6 1 48 9 95 19 164 33
384 -2 492 -78 13 -10 24 -10 45 -1 16 6 61 25 102 42 40 17 98 34 129 38 31
3 49 9 39 12 -24 9 -7 26 31 29 22 1 32 -2 32 -12 0 -16 50 -28 51 -12 0 7 3
6 6 -1 2 -7 19 -13 36 -13 18 0 59 -7 92 -14 33 -8 62 -13 64 -11 2 2 7 19 11
37 7 31 8 30 9 -16 1 -46 0 -48 -21 -42 -209 59 -400 44 -558 -45 l-39 -22
-73 36 c-40 20 -101 43 -134 51 -81 21 -279 21 -354 1 -79 -21 -80 -21 -79 28
l2 42 6 -35 c4 -19 11 -34 16 -33z m322 47 c-3 -3 -12 -4 -19 -1 -8 3 -5 6 6
6 11 1 17 -2 13 -5z m808 -16 c7 -7 1 -7 -15 -2 -14 4 -38 8 -55 7 -25 -1 -26
0 -10 7 22 9 65 3 80 -12z m-570 -35 c11 -7 14 -13 8 -13 -7 0 -14 4 -17 8 -3
5 -19 7 -36 4 -27 -4 -30 -2 -28 22 3 28 2 28 73 -21z"/>
<path d="M6126 4532 c-16 -53 -32 -103 -34 -109 -3 -10 12 -13 53 -13 54 0 57
1 52 23 -3 12 -11 58 -18 102 -7 44 -15 83 -18 87 -3 4 -19 -37 -35 -90z"/>
<path d="M6516 4488 c-8 -13 -18 -35 -21 -50 -6 -23 -4 -28 12 -28 63 0 112
44 91 83 -13 25 -64 22 -82 -5z"/>
<path d="M7593 4508 c-21 -10 -43 -54 -43 -84 0 -21 54 -17 84 7 31 24 34 64
7 79 -23 12 -20 12 -48 -2z"/>
<path d="M8587 4492 c-9 -10 -20 -33 -23 -50 -6 -31 -5 -32 28 -32 62 0 109
55 76 88 -18 18 -63 14 -81 -6z"/>
<path d="M8956 4359 c-30 -23 -36 -73 -10 -83 46 -18 94 20 94 75 0 25 -4 29
-29 29 -15 0 -40 -9 -55 -21z"/>
<path d="M4970 4116 c0 -2 7 -7 16 -10 8 -3 12 -2 9 4 -6 10 -25 14 -25 6z"/>
<path d="M9153 2933 c9 -2 25 -2 35 0 9 3 1 5 -18 5 -19 0 -27 -2 -17 -5z"/>
<path d="M9428 2933 c105 -2 279 -2 385 0 105 1 19 2 -193 2 -212 0 -298 -1
-192 -2z"/>
<path d="M9068 2923 c7 -3 16 -2 19 1 4 3 -2 6 -13 5 -11 0 -14 -3 -6 -6z"/>
<path d="M9020 2910 c-8 -5 -10 -10 -5 -10 6 0 17 5 25 10 8 5 11 10 5 10 -5
0 -17 -5 -25 -10z"/>
<path d="M9528 2873 c7 -3 16 -2 19 1 4 3 -2 6 -13 5 -11 0 -14 -3 -6 -6z"/>
<path d="M9420 2820 c-174 -54 -337 -118 -344 -136 -3 -9 5 -25 20 -39 l26
-24 -16 -73 c-8 -40 -18 -83 -22 -95 -5 -17 1 -30 23 -52 l29 -29 -18 -47
c-22 -56 -42 -225 -28 -239 16 -16 11 -33 -10 -39 -15 -4 -20 -14 -20 -39 0
-39 -5 -47 -43 -71 -27 -17 -30 -17 -54 -2 -14 10 -22 12 -19 6 9 -14 -9 -14
-36 0 -15 8 -19 8 -13 -1 4 -7 1 -10 -11 -8 -11 2 -19 -3 -20 -12 0 -8 -2 -24
-2 -34 -4 -47 -15 2 -22 96 -7 91 -8 82 -6 -77 l1 -180 31 -55 c35 -63 105
-112 184 -129 59 -13 1034 -15 1026 -3 -3 5 5 7 18 5 35 -7 122 35 161 78 61
68 68 95 73 289 2 96 2 173 -1 170 -5 -4 -14 -65 -19 -127 -1 -7 -7 -13 -14
-13 -7 0 -18 -8 -24 -17 -10 -16 -11 -16 -6 -1 3 12 1 15 -10 11 -9 -3 -14 1
-14 12 0 9 -5 13 -10 10 -19 -11 -62 -16 -56 -6 4 5 2 12 -3 15 -15 10 -20
-21 -10 -59 17 -61 11 -65 -93 -65 -147 0 -270 -35 -395 -111 -36 -21 -70 -39
-75 -39 -6 0 -27 13 -47 29 -48 38 -144 85 -217 107 -63 19 -245 26 -296 11
-24 -6 -28 -4 -28 12 0 11 5 23 10 26 6 3 8 16 5 28 -5 17 0 25 22 34 49 21
116 33 190 33 139 0 249 -38 325 -113 l46 -45 44 42 c105 100 314 154 433 111
59 -21 60 -20 57 35 -4 47 -6 50 -32 50 l-27 0 -6 98 c-3 58 -13 124 -27 165
-19 63 -20 70 -6 86 19 21 39 117 34 165 l-3 32 -63 -28 c-52 -24 -62 -31 -52
-43 6 -8 9 -23 5 -35 -6 -19 -12 -20 -53 -15 -46 7 -46 6 -24 -10 12 -9 26
-14 31 -11 5 4 11 1 13 -5 3 -8 13 -6 34 7 l29 18 -17 -20 c-10 -11 -18 -26
-18 -34 0 -10 -3 -10 -15 0 -11 9 -15 9 -15 1 0 -7 -5 -9 -11 -5 -8 4 -7 9 2
16 10 6 7 7 -10 3 -14 -4 -21 -3 -18 2 3 5 -2 9 -11 9 -9 0 -30 2 -47 3 -26 2
-28 3 -10 11 11 5 14 9 7 9 -7 1 -10 6 -7 11 10 16 -36 10 -80 -10 -43 -20
-43 -26 0 -10 15 6 32 7 38 3 7 -4 -2 -10 -23 -14 -19 -3 -44 -10 -54 -14 -15
-6 -17 -5 -11 5 5 9 4 11 -4 6 -6 -4 -9 -11 -6 -16 3 -5 -5 -12 -19 -16 -25
-6 -53 -31 -56 -49 -3 -17 -29 -61 -30 -50 0 6 7 21 16 33 9 13 11 22 4 22
-24 0 37 61 89 88 75 39 117 52 186 56 l58 3 1 44 c1 43 2 45 55 72 30 15 67
27 82 27 38 0 45 16 16 35 -56 36 -458 165 -512 164 -16 0 -86 -18 -155 -39z
m-182 -214 c21 -9 23 -16 20 -53 -3 -42 -3 -43 28 -43 47 0 244 -69 244 -85 0
-2 -16 3 -35 11 -19 7 -43 14 -53 14 -10 0 -34 7 -51 16 -18 9 -50 16 -72 16
-21 -1 -39 3 -39 9 0 5 -7 9 -15 9 -8 0 -15 -5 -15 -11 0 -5 -5 -7 -11 -3 -8
5 -8 9 1 14 14 9 -39 50 -63 50 -19 0 -24 8 -31 43 -5 26 -3 27 32 25 20 -1
48 -6 60 -12z m672 -36 c0 -5 -5 -10 -11 -10 -5 0 -7 5 -4 10 3 6 8 10 11 10
2 0 4 -4 4 -10z m-702 -125 c-3 -3 -9 2 -12 12 -6 14 -5 15 5 6 7 -7 10 -15 7
-18z m122 5 c-14 -4 -32 -8 -40 -9 -13 -1 -13 0 0 9 8 5 26 9 40 9 l25 -1 -25
-8z m146 -35 c65 -32 97 -85 97 -161 0 -39 4 -54 13 -54 10 0 14 15 14 53 0
66 24 113 79 152 38 27 51 30 114 30 89 0 125 -20 161 -86 52 -94 26 -220 -57
-280 -48 -35 -95 -45 -156 -33 -44 9 -46 11 -52 49 -5 29 -17 48 -44 72 -43
37 -54 39 -94 18 -25 -13 -55 -60 -74 -117 -7 -20 -80 -33 -132 -24 -83 16
-165 116 -165 203 0 49 34 125 72 160 51 47 150 55 224 18z m-246 12 c0 -2
-17 -19 -37 -38 -24 -21 -30 -25 -18 -9 26 33 55 58 55 47z m405 -292 c26 -26
32 -63 14 -96 -9 -17 -17 -19 -57 -13 -60 8 -72 19 -72 59 0 24 7 39 26 54 35
27 59 26 89 -4z m-739 -240 c1 -8 -2 -13 -7 -9 -5 3 -9 12 -9 21 0 19 13 9 16
-12z m64 16 c0 -5 -7 -12 -16 -15 -24 -9 -28 -7 -14 9 14 17 30 20 30 6z m3
-71 c-3 -12 -8 -19 -11 -16 -5 6 5 36 12 36 2 0 2 -9 -1 -20z m1244 -42 c-3
-8 -6 -5 -6 6 -1 11 2 17 5 13 3 -3 4 -12 1 -19z m-1194 -70 c20 -40 45 -89
57 -108 l22 -35 -25 29 c-14 16 -39 59 -57 95 -17 36 -36 74 -42 85 -5 11 -6
16 0 12 5 -3 26 -38 45 -78z m1184 30 c-3 -8 -6 -5 -6 6 -1 11 2 17 5 13 3 -3
4 -12 1 -19z m-42 -95 c-20 -37 -45 -77 -56 -88 -11 -11 3 18 31 64 27 46 50
89 50 94 0 6 3 8 6 4 4 -3 -10 -37 -31 -74z"/>
<path d="M9308 2331 c-30 -26 -33 -35 -32 -82 0 -47 4 -55 37 -85 49 -45 93
-46 141 -4 56 49 60 124 9 174 -38 39 -111 37 -155 -3z m111 -15 c7 -8 11 -27
9 -43 -2 -23 -9 -29 -32 -31 -16 -2 -32 2 -37 10 -30 46 26 105 60 64z"/>
<path d="M9709 2331 c-53 -54 -32 -158 38 -188 44 -18 79 -10 115 24 49 47 50
119 2 166 -22 22 -36 27 -76 27 -41 0 -54 -5 -79 -29z m110 -15 c7 -8 11 -27
9 -43 -6 -51 -78 -40 -78 13 0 37 47 57 69 30z"/>
</g>
</svg>
